# xmcd
#
# Track frame offsets: 
#        150
#        10851
#        22704
#        45716
#        52549
#        63062
#        77514
#        91042
#        100737
#        109879
#        144746
#        166075
#        187397
#        201539
#
# Disc length: 2825 seconds
#
# Revision: 1
# Processed by: cddbd v1.5.2PL0 Copyright (c) Steve Scherf et al.
# Submitted via: ExactAudioCopy v0.99pb3
#
DISCID=a70b070e
DTITLE=The Meat Purveyors - Beans 'N' Sweepins
DYEAR=1900
DGENRE=Bluegrass
TTITLE0=Leave That Man Alone
TTITLE1=Whiskey Before Breakfast
TTITLE2=Rank Stranger
TTITLE3=Cotton Patch Rag
TTITLE4=Love Please Come Home
TTITLE5=Coal Miner's Blues
TTITLE6=Workin On A Building
TTITLE7=Truck Drivin Woman
TTITLE8=Take Me Back To Tulsa
TTITLE9=Madonna Trilogy
TTITLE10=Round And Round
TTITLE11=Hanged Man
TTITLE12=Biggest Mistake
TTITLE13=Hey Little Sister
EXTD=
EXTT0=
EXTT1=
EXTT2=
EXTT3=
EXTT4=
EXTT5=
EXTT6=
EXTT7=
EXTT8=
EXTT9=
EXTT10=
EXTT11=
EXTT12=
EXTT13=
PLAYORDER=
